<!DOCTYPE svg PUBLIC "-//W3C//DTD SVG 1.1//EN" "http://www.w3.org/Graphics/SVG/1.1/DTD/svg11.dtd">
<!-- Uploaded to: SVG Repo, www.svgrepo.com, Transformed by: SVG Repo Mixer Tools -->
<svg fill="#2a00fa" width="800px" height="800px" viewBox="0 0 512 512" enable-background="new 0 0 512 512" version="1.1" xml:space="preserve" xmlns="http://www.w3.org/2000/svg" xmlns:xlink="http://www.w3.org/1999/xlink" stroke="#2a00fa">
<g id="SVGRepo_bgCarrier" stroke-width="0"/>
<g id="SVGRepo_tracerCarrier" stroke-linecap="round" stroke-linejoin="round"/>
<g id="SVGRepo_iconCarrier"> <g id="Layer_1"/> <g id="Layer_2"> <g> <path d="M154.8,424.7h202.4c12.8,0,23.2-10.4,23.2-23.2V139.3c0-12.8-10.4-23.2-23.2-23.2h-29.8V94.8c0-4.1-3.4-7.5-7.5-7.5 s-7.5,3.4-7.5,7.5v21.3h-48.9V94.8c0-4.1-3.4-7.5-7.5-7.5s-7.5,3.4-7.5,7.5v21.3h-48.9V94.8c0-4.1-3.4-7.5-7.5-7.5 s-7.5,3.4-7.5,7.5v21.3h-29.8c-12.8,0-23.2,10.4-23.2,23.2v262.1C131.6,414.2,142,424.7,154.8,424.7z M146.6,139.3 c0-4.5,3.7-8.2,8.2-8.2h29.8v21.5c0,4.1,3.4,7.5,7.5,7.5s7.5-3.4,7.5-7.5v-21.5h48.9v21.5c0,4.1,3.4,7.5,7.5,7.5s7.5-3.4,7.5-7.5 v-21.5h48.9v21.5c0,4.1,3.4,7.5,7.5,7.5s7.5-3.4,7.5-7.5v-21.5h29.8c4.5,0,8.2,3.7,8.2,8.2v262.1c0,4.5-3.7,8.2-8.2,8.2H154.8 c-4.5,0-8.2-3.7-8.2-8.2V139.3z"/> <path d="M181.9,219.4c1.5,1.5,3.4,2.2,5.3,2.2c1.9,0,3.8-0.7,5.3-2.2l26.5-26.5c2.9-2.9,2.9-7.7,0-10.6c-2.9-2.9-7.7-2.9-10.6,0 l-21.2,21.2l-7.7-7.7c-2.9-2.9-7.7-2.9-10.6,0c-2.9,2.9-2.9,7.7,0,10.6L181.9,219.4z"/> <path d="M238.1,208.3h99.7c4.1,0,7.5-3.4,7.5-7.5s-3.4-7.5-7.5-7.5h-99.7c-4.1,0-7.5,3.4-7.5,7.5S234,208.3,238.1,208.3z"/> <path d="M181.9,289c1.5,1.5,3.4,2.2,5.3,2.2c1.9,0,3.8-0.7,5.3-2.2l26.5-26.5c2.9-2.9,2.9-7.7,0-10.6s-7.7-2.9-10.6,0L187.2,273 l-7.7-7.7c-2.9-2.9-7.7-2.9-10.6,0c-2.9,2.9-2.9,7.7,0,10.6L181.9,289z"/> <path d="M238.1,277.9h99.7c4.1,0,7.5-3.4,7.5-7.5s-3.4-7.5-7.5-7.5h-99.7c-4.1,0-7.5,3.4-7.5,7.5S234,277.9,238.1,277.9z"/> <path d="M181.9,358.5c1.5,1.5,3.4,2.2,5.3,2.2c1.9,0,3.8-0.7,5.3-2.2l26.5-26.5c2.9-2.9,2.9-7.7,0-10.6s-7.7-2.9-10.6,0 l-21.2,21.2l-7.7-7.7c-2.9-2.9-7.7-2.9-10.6,0c-2.9,2.9-2.9,7.7,0,10.6L181.9,358.5z"/> <path d="M238.1,347.5h99.7c4.1,0,7.5-3.4,7.5-7.5s-3.4-7.5-7.5-7.5h-99.7c-4.1,0-7.5,3.4-7.5,7.5S234,347.5,238.1,347.5z"/> </g> </g> </g>
</svg>